<?xml version="1.0" ?><svg data-name="Layer 1" id="Layer_1" viewBox="0 0 512 512" xmlns="http://www.w3.org/2000/svg"><title/><path d="M337.94,331,288,136.6a4.43,4.43,0,0,0-.48-1.2c-1.68-3-7.26-9.33-23.22-4.24a22.55,22.55,0,0,0-8.39,6.72,24.33,24.33,0,0,0-8.91-7c-15.32-4.79-20.86,1.56-22.54,4.51a4.43,4.43,0,0,0-.48,1.2L174.06,331l-54.73,54.73a4.91,4.91,0,0,0,7,6.93L182,337a4.93,4.93,0,0,0,1.28-2.25l50-194.87c1.22-1.19,5.07-1.45,10.13.09,6.55,3.18,7.7,8.15,7.7,17.42v70.91a28.83,28.83,0,0,0-4-2.88l-1.32-.77a16.9,16.9,0,0,0-25.34,12.4l-12.25,95.49a4.91,4.91,0,1,0,9.73,1.26l12.25-95.49a7.08,7.08,0,0,1,10.64-5.2l1.33.78a18.27,18.27,0,0,1,9,15.69v90.14c0,32.71-13.51,46.72-21.57,52.17-11.62,7.86-21.8,17.56-29.38,25.14l-23.68,23.67a4.9,4.9,0,1,0,6.93,6.93L207.09,424c7.25-7.27,17-16.55,27.93-24,6.32-4.26,15.42-12.79,21-28.57,5.56,15.78,14.66,24.31,21,28.57,10.93,7.4,20.68,16.68,27.94,24l23.68,23.67a4.9,4.9,0,1,0,6.93-6.93l-23.67-23.67c-7.59-7.58-17.77-17.28-29.39-25.14-8.05-5.44-21.56-19.45-21.56-52.17V249.6a18.3,18.3,0,0,1,8.94-15.69l1.36-.8a7.08,7.08,0,0,1,10.62,5.22l12.25,95.49a4.86,4.86,0,0,0,5.49,4.24,4.92,4.92,0,0,0,4.24-5.5l-12.25-95.49a16.9,16.9,0,0,0-25.32-12.41l-1.36.79a27.61,27.61,0,0,0-4,2.86v-70.9c0-9.27,1.15-14.24,7-17.16,5.7-1.79,9.58-1.53,10.81-.35l50,194.87a4.93,4.93,0,0,0,1.28,2.25l55.67,55.68a4.91,4.91,0,1,0,6.95-6.93Z"/><path d="M421.27,228.28a4.91,4.91,0,0,0-3.7-4.34c-.42-.1-41.76-10.82-46.26-45.79-4.24-33,16.94-45.48,19.74-47l.43-.22a4.9,4.9,0,0,0-4.41-8.76l-.39.19c-3,1.51-35.32,16.65-57.9-4.87C307.4,97.15,319.83,71.09,320.37,70a4.9,4.9,0,0,0-8.2-5.26c-.25.29-24.49,30.36-56.24,29.25C224,94.63,200.08,65,199.83,64.73a4.9,4.9,0,0,0-8.2,5.27c.15.27,13.1,27-8.41,47.53-22.57,21.52-54.13,6.75-57.83,4.91l-.46-.23a4.9,4.9,0,0,0-4.41,8.76c.08,0,.2.11.41.2,2.8,1.49,24,13.91,19.76,47-4.5,35-45.84,45.69-46.26,45.79a4.91,4.91,0,0,0-.81,9.24c35.28,15.63,34.86,53.18,34.82,54.77a4.9,4.9,0,0,0,4.79,5,5,5,0,0,0,5-4.77c0-1.68.6-38.17-30.55-58.51,14.57-6.16,38.91-20.74,42.72-50.28,2.44-19-2.35-32.47-8.42-41.51,14,2.4,32.55,1.45,48-13.26,14.19-13.52,16.28-29.24,15.11-41.06,11.19,9.27,28.82,20.23,49.85,20.23h1c21.07.43,39.61-10.81,51-20.23-1.17,11.81.92,27.54,15.11,41.07,15.47,14.72,34,15.66,48,13.26-6.07,9-10.86,22.47-8.42,41.51,3.81,29.54,28.15,44.12,42.72,50.28-31.15,20.34-30.59,56.83-30.55,58.51a4.91,4.91,0,0,0,4.91,4.78h.13a4.9,4.9,0,0,0,4.77-5c0-.39-.61-39.06,34.82-54.76A4.91,4.91,0,0,0,421.27,228.28Z"/></svg>