<?xml version="1.0" ?><svg viewBox="0 0 512 512" xmlns="http://www.w3.org/2000/svg" xmlns:xlink="http://www.w3.org/1999/xlink"><defs><linearGradient gradientUnits="userSpaceOnUse" id="linear-gradient" x1="145.757" x2="175.2832" y1="259.7519" y2="310.8929"><stop offset="0" stop-color="#cc0202"/><stop offset="1" stop-color="#910000"/></linearGradient><linearGradient gradientUnits="userSpaceOnUse" id="linear-gradient-2" x1="360.156" x2="452.1795" y1="212.137" y2="371.5264"><stop offset="0" stop-color="#ffd664"/><stop offset="1" stop-color="#ff8939"/></linearGradient><linearGradient gradientUnits="userSpaceOnUse" id="linear-gradient-3" x1="344.5309" x2="436.5544" y1="221.1589" y2="380.5483"><stop offset="0" stop-color="#ffe197"/><stop offset="1" stop-color="#ffa96e"/></linearGradient><linearGradient id="linear-gradient-4" x1="328.9057" x2="420.9292" xlink:href="#linear-gradient-2" y1="230.1808" y2="389.5702"/><linearGradient id="linear-gradient-5" x1="313.2806" x2="405.3041" xlink:href="#linear-gradient-3" y1="239.2026" y2="398.592"/><linearGradient id="linear-gradient-6" x1="297.6555" x2="389.679" xlink:href="#linear-gradient-2" y1="248.2245" y2="407.6139"/><linearGradient id="linear-gradient-7" x1="282.0304" x2="374.0539" xlink:href="#linear-gradient-3" y1="257.2463" y2="416.6358"/><linearGradient id="linear-gradient-8" x1="250.7801" x2="342.8036" xlink:href="#linear-gradient-3" y1="275.2901" y2="434.6795"/><linearGradient id="linear-gradient-9" x1="219.5298" x2="311.5534" xlink:href="#linear-gradient-3" y1="293.3338" y2="452.7232"/><linearGradient id="linear-gradient-10" x1="188.2796" x2="280.3031" xlink:href="#linear-gradient-3" y1="311.3775" y2="470.7669"/><linearGradient id="linear-gradient-11" x1="172.6545" x2="264.678" xlink:href="#linear-gradient-2" y1="320.3994" y2="479.7888"/><linearGradient id="linear-gradient-12" x1="157.0293" x2="249.0529" xlink:href="#linear-gradient-3" y1="329.4212" y2="488.8106"/><linearGradient id="linear-gradient-13" x1="141.4042" x2="233.4277" xlink:href="#linear-gradient-2" y1="338.4431" y2="497.8325"/><linearGradient id="linear-gradient-14" x1="125.7791" x2="217.8026" xlink:href="#linear-gradient-3" y1="347.465" y2="506.8544"/><linearGradient id="linear-gradient-15" x1="319.3975" x2="397.0449" xlink:href="#linear-gradient-2" y1="268.8738" y2="403.3629"/><linearGradient id="linear-gradient-16" x1="301.1306" x2="365.9544" xlink:href="#linear-gradient-2" y1="309.0359" y2="421.314"/><linearGradient id="linear-gradient-17" x1="256.8664" x2="330.7918" xlink:href="#linear-gradient-2" y1="313.5742" y2="441.6167"/><linearGradient id="linear-gradient-18" x1="223.6773" x2="298.3462" xlink:href="#linear-gradient" y1="290.9394" y2="420.2696"/><linearGradient gradientUnits="userSpaceOnUse" id="linear-gradient-19" x1="303.1192" x2="370.8151" y1="291.3199" y2="359.0158"><stop offset="0.5" stop-color="#f23300"/><stop offset="1" stop-color="#d80000"/></linearGradient><linearGradient gradientUnits="userSpaceOnUse" id="linear-gradient-20" x1="170.0592" x2="216.9409" y1="65.2836" y2="146.485"><stop offset="0" stop-color="#fff9e6"/><stop offset="1" stop-color="#ffc8b3"/></linearGradient><linearGradient id="linear-gradient-21" x1="170.0592" x2="216.9409" xlink:href="#linear-gradient" y1="65.2837" y2="146.4851"/><linearGradient id="linear-gradient-22" x1="182.7638" x2="204.2351" xlink:href="#linear-gradient" y1="99.6062" y2="136.7956"/><linearGradient gradientUnits="userSpaceOnUse" id="linear-gradient-23" x1="162.2501" x2="162.2501" y1="174.3267" y2="290.054"><stop offset="0" stop-color="#2e5056"/><stop offset="0.7" stop-color="#072835"/></linearGradient><linearGradient gradientUnits="userSpaceOnUse" id="linear-gradient-24" x1="201.4494" x2="223.547" y1="136.1108" y2="174.385"><stop offset="0" stop-color="#f23300"/><stop offset="0.1974" stop-color="#e71e00"/><stop offset="0.4292" stop-color="#df0d00"/><stop offset="0.6834" stop-color="#da0300"/><stop offset="1" stop-color="#d80000"/></linearGradient></defs><title/><g id="Basketball"><polygon points="6 340.453 6 355.773 256 500.123 256 484.802 6 340.453" style="fill:#ad2100"/><polygon points="506 340.453 506 355.773 256 500.123 256 484.802 506 340.453" style="fill:#e54100"/><polygon points="256 196.103 6 340.453 65.04 374.542 315.04 230.193 256 196.103" style="fill:url(#linear-gradient)"/><polyline points="306.335 243.21 490.375 349.475 506 340.453 321.961 234.189 306.335 243.21" style="fill:url(#linear-gradient-2)"/><polyline points="290.71 252.232 474.749 358.496 490.375 349.474 306.336 243.211 290.71 252.232" style="fill:url(#linear-gradient-3)"/><polyline points="275.085 261.254 459.124 367.518 474.749 358.496 290.711 252.233 275.085 261.254" style="fill:url(#linear-gradient-4)"/><polyline points="259.46 270.276 443.499 376.54 459.124 367.518 275.086 261.254 259.46 270.276" style="fill:url(#linear-gradient-5)"/><polyline points="243.835 279.298 427.874 385.562 443.499 376.54 259.461 270.276 243.835 279.298" style="fill:url(#linear-gradient-6)"/><polyline points="228.21 288.32 412.249 394.584 427.874 385.562 243.836 279.298 228.21 288.32" style="fill:url(#linear-gradient-7)"/><polyline points="196.96 306.363 380.999 412.628 396.624 403.606 212.585 297.342 196.96 306.363" style="fill:url(#linear-gradient-8)"/><polyline points="165.709 324.407 349.748 430.671 365.374 421.649 181.335 315.386 165.709 324.407" style="fill:url(#linear-gradient-9)"/><polyline points="134.459 342.451 318.498 448.715 334.123 439.693 150.085 333.429 134.459 342.451" style="fill:url(#linear-gradient-10)"/><polyline points="118.834 351.473 302.873 457.737 318.498 448.715 134.46 342.451 118.834 351.473" style="fill:url(#linear-gradient-11)"/><polyline points="103.209 360.495 287.248 466.759 302.873 457.737 118.835 351.473 103.209 360.495" style="fill:url(#linear-gradient-12)"/><polyline points="87.584 369.516 271.623 475.781 287.248 466.759 103.209 360.495 87.584 369.516" style="fill:url(#linear-gradient-13)"/><polyline points="71.959 378.538 255.998 484.802 271.623 475.781 87.584 369.517 71.959 378.538" style="fill:url(#linear-gradient-14)"/><path d="M356.3488,322.5936l12.4857-7.209-6.9211-3.9961-12.1641,7.0232L325.421,304.3651l12.1639-7.024-6.9209-3.9962L318.5,300.369l-24.33-14.0476,12.1651-7.0238-6.9211-3.9962-12.1651,7.0238-24.3283-14.0468,59.04-34.09-6.9211-3.9961L65.04,374.542l6.921,3.9962L131,344.449,155.33,358.4972l-12.2837,7.092,6.8916,4.0133,12.3131-7.109,24.3277,14.0471-12.4161,7.17,6.8911,4.0132,12.4457-7.1867,24.3292,14.048-12.55,7.2462,6.8914,4.0133L224.82,398.54a149.733,149.733,0,0,0,64.99,15.4193,121.8,121.8,0,0,0,61.67-16.3774c19.5794-11.305,29.5076-24.0048,29.51-37.748C380.99,342.3182,364.748,328.546,356.3488,322.5936Zm-131.5994,67.995-86.8281-50.1358L256,272.2748l60.7932,35.1017.0035.002,26.0308,15.03Zm123.2693.9992c-49.4606,28.5577-99.5577,10.26-115.9526,2.7684l117.6115-67.9107c5.7338,3.7322,24.4013,17.1367,24.39,33.404C374.0584,370.9337,365.2951,381.6123,348.0187,391.5878Z" style="fill:#f7f7f7"/><path d="M367.0553,386.5327l29.5687,17.073,15.6249-9.0218L377.1,374.2891A47.6122,47.6122,0,0,1,367.0553,386.5327Z" style="fill:url(#linear-gradient-15)"/><path d="M336.4444,404.9456l28.9293,16.7038,15.6253-9.0218-27.8221-16.0647c-.5667.34-1.1131.6816-1.6967,1.0188A122.9035,122.9035,0,0,1,336.4444,404.9456Z" style="fill:url(#linear-gradient-16)"/><path d="M289.5441,413.9531l44.5794,25.74,15.625-9.0219L316.079,411.2305a125.8675,125.8675,0,0,1-26.2684,2.7285C289.7205,413.959,289.6343,413.9531,289.5441,413.9531Z" style="fill:url(#linear-gradient-17)"/><path d="M224.7551,390.5886l-86.8282-50.1358,118.0786-68.178,60.7931,35.1017.0035.002,26.0308,15.03Zm123.2692.9992c-49.4606,28.5577-99.5577,10.26-115.9526,2.7684l117.6115-67.9107c5.7338,3.7322,24.4014,17.1367,24.39,33.404C374.064,370.9337,365.3007,381.6123,348.0243,391.5878Z" style="fill:url(#linear-gradient-18)"/><circle cx="336.9672" cy="325.1678" r="47.8682" style="fill:url(#linear-gradient-19)"/><path d="M384.72,322.883a71.33,71.33,0,0,0-24.0066-8.5334c-.5664-12.781,5.0988-20.6981,8.6495-24.35-.5656-.5213-1.1171-1.0579-1.7075-1.552-3.7777,3.9057-9.7271,12.2374-9.27,25.5648a99.7192,99.7192,0,0,0-11.1992-.9867,157.5306,157.5306,0,0,0-6.7535-35.5513c-.7859-.0563-1.5743-.1017-2.37-.12a1.1152,1.1152,0,0,0,.0367.3434,155.1317,155.1317,0,0,1,6.7724,35.2654c-.4743-.0057-.9312-.0378-1.4095-.0378-3.224,0-6.5274.1747-9.871.44-1.1738-13.5516-15.1589-22.7568-24.1511-27.32-.67.4726-1.3239.9667-1.9683,1.472a1.1362,1.1362,0,0,0,.374.3036c8.4977,4.2307,22.3144,13.0091,23.4419,25.7231a174.844,174.844,0,0,0-42.1012,9.9029c-.0209.5757-.0871,1.14-.0871,1.72,0,.2287.031.45.0341.6777a1.1583,1.1583,0,0,0,.3611-.0631,173.22,173.22,0,0,1,41.8463-9.928c-.0022.073.0085.1417.0051.215-.7369,16.2635-18.7569,33.0137-29.4332,41.5505-.0124.01-.0175.0248-.03.0355.5228.5645,1.0346,1.1374,1.5838,1.6759,13.39-10.7265,29.447-26.89,30.1819-43.1583.0079-.169-.0141-.329-.01-.4969,3.3287-.2675,6.6169-.4427,9.8234-.4427.5228,0,1.0219.0338,1.54.0411.1994,3.2814.3262,6.5769.3262,9.8939a156.9156,156.9156,0,0,1-7.2287,47.4678,1.1276,1.1276,0,0,0-.0369.3442c.7976-.018,1.588-.0631,2.3756-.12a159.2507,159.2507,0,0,0,7.1974-47.6923c0-3.2958-.125-6.5708-.3194-9.8322a96.7771,96.7771,0,0,1,11.2045,1.0255c1.5979,18.2975,8.6587,35.902,11.6213,42.626a1.1106,1.1106,0,0,0,.3087.3594c.5623-.5507,1.0867-1.1357,1.621-1.7134-2.98-6.8206-9.5629-23.5046-11.1932-40.9086a68.5084,68.5084,0,0,1,23.3537,8.51,1.1179,1.1179,0,0,0,.5932.1459c0-.0721.0107-.1411.0107-.2129C384.8354,324.3967,384.756,323.6455,384.72,322.883Z" style="fill:#072835"/><polygon points="131 87.841 131 196.103 256 123.928 256 15.666 131 87.841" style="fill:url(#linear-gradient-20)"/><path d="M131,87.8405V196.103l125-72.1752V15.6658Zm118.077,32.09-111.1553,64.182V91.8379l111.1553-64.182Z" style="fill:url(#linear-gradient-21)"/><path d="M169.0721,157.097V107.5144l48.8548-28.21v49.5826Zm6.9223-45.5851v33.5928l35.01-20.2147V91.2971Z" style="fill:url(#linear-gradient-22)"/><polygon points="124.438 84.052 124.438 192.314 131 196.103 131 87.841 124.438 84.052" style="fill:#3d0000"/><polygon points="249.438 11.877 124.438 84.052 131 87.841 256 15.666 249.438 11.877" style="fill:#720000"/><path d="M155.7858,181.7916v104.53c0,2.0614,2.8942,3.7325,6.4643,3.7325s6.4642-1.6711,6.4642-3.7325V174.3267" style="fill:url(#linear-gradient-23)"/><path d="M212.4981,137.2045c-17.2584,0-31.2491,8.0783-31.2491,18.0434s13.9907,18.0434,31.2491,18.0434,31.2494-8.0783,31.2494-18.0434S229.7567,137.2045,212.4981,137.2045Zm0,30.3174c-14.5837,0-25.4809-6.4806-25.4809-12.274s10.8972-12.274,25.4809-12.274,25.4808,6.4807,25.4808,12.274S227.0817,167.5219,212.4981,167.5219Z" style="fill:url(#linear-gradient-24)"/><path d="M240.9025,162.738c-4.93,6.2218-15.7794,10.5533-28.404,10.5533s-23.4739-4.3315-28.404-10.5533h-.0287L192.2,193.5049c1.3773,5.7615,9.94,10.1989,20.2978,10.1989,10.3595,0,18.9231-4.4388,20.2987-10.2017l8.1338-30.7641Z" style="fill:#88d3bf"/><path d="M212.4982,167.5219c-14.5836,0-25.4808-6.4806-25.4808-12.2739s10.8972-12.274,25.4808-12.274,25.4808,6.4806,25.4808,12.274S227.0819,167.5219,212.4982,167.5219Z" style="fill:#88d3bf"/><path d="M187.0174,155.2a4.8775,4.8775,0,0,0,.11.9543l4.3619-7.5555C188.6556,150.6283,187.0174,152.9639,187.0174,155.2Z" style="fill:#f7f7f7"/><path d="M197.4605,164.8964c.7146.2693,1.4548.5228,2.2266.7572l3.7913-6.5674,4.723,8.1808q1.3528.1216,2.76.1645L204.81,156.7788l7.6884-13.3184,7.69,13.32-6.15,10.6516q1.4068-.044,2.76-.1657l4.7221-8.18,3.791,6.5662c.7721-.2343,1.5123-.4878,2.2272-.7571l-4.6859-8.1165,6.1674-10.6831q-1.0373-.453-2.1716-.8529l-5.3278,9.23-6.6276-11.48c-.7876-.0394-1.5833-.0665-2.3948-.0665s-1.6058.0271-2.3928.0665l-6.627,11.4785-5.3281-9.2285q-1.134.3989-2.1728.8517l6.1688,10.6843Z" style="fill:#f7f7f7"/><path d="M237.979,155.2c0-2.2364-1.6379-4.572-4.4714-6.6012l4.3616,7.5544A4.8909,4.8909,0,0,0,237.979,155.2Z" style="fill:#f7f7f7"/><path d="M188.6733,180.1167l.8366,3.1648,4.9472-8.57,7.69,13.32-6.2043,10.7474a17.0841,17.0841,0,0,0,1.9066,1.3114l5.63-9.7525,7.6685,13.2824c.4484.0169.8957.036,1.3511.036.4572,0,.9061-.0191,1.3563-.036l7.6675-13.2812,5.6289,9.7491a16.9034,16.9034,0,0,0,1.9066-1.3126l-6.2035-10.744,7.6884-13.3184,4.945,8.565.8368-3.1648-4.45-7.7076,2.5147-4.3568a33.2752,33.2752,0,0,1-3.7031,1.8015l-.1434.2479-.0884-.1532c-.71.29-1.44.5644-2.1917.8191l.9478,1.6415-7.6884,13.3184-7.2276-12.5184c-.5954.0191-1.1917.0383-1.7959.0383s-1.1982-.0192-1.7925-.0383l-7.2271,12.5184-7.69-13.32.9467-1.6393q-1.1277-.3837-2.1911-.8191l-.0876.1521-.142-.2456a33.3317,33.3317,0,0,1-3.7039-1.8016l2.5139,4.3546ZM212.5,174.712l7.69,13.32-7.689,13.32-7.69-13.3207Z" style="fill:#f7f7f7"/></g></svg>